<svg width="88" height="88" viewBox="0 0 88 88" fill="none" xmlns="http://www.w3.org/2000/svg">
<g filter="url(#filter0_d_6_144)">
<rect x="4" width="80" height="80" rx="10" fill="#FFB742" fill-opacity="0.5" shape-rendering="crispEdges"/>
<rect x="4.5" y="0.5" width="79" height="79" rx="9.5" stroke="black" shape-rendering="crispEdges"/>
</g>
<path d="M28.853 56.8015L25.484 19H62.516L59.1425 56.7955L43.9775 61L28.853 56.8015Z" fill="#1572B6"/>
<path d="M44 57.787L56.255 54.3895L59.138 22.0915H44V57.787Z" fill="#33A9DC"/>
<path d="M44 35.7865H50.135L50.558 31.039H44V26.4025H55.625L55.514 27.646L54.3755 40.423H44V35.7865Z" fill="white"/>
<path d="M44.0285 47.827L44.0075 47.833L38.8445 46.438L38.5145 42.7405H33.86L34.5095 50.02L44.006 52.657L44.0285 52.651V47.827Z" fill="#EBEBEB"/>
<path d="M49.7405 40.2265L49.1825 46.435L44.012 47.83V52.654L53.516 50.02L53.5865 49.237L54.392 40.2265H49.7405Z" fill="white"/>
<path d="M44.0165 26.4025V31.039H32.8175L32.7245 29.9965L32.513 27.646L32.402 26.4025H44.0165ZM44 35.7865V40.423H38.9015L38.8085 39.3805L38.5985 37.03L38.4875 35.7865H44Z" fill="#EBEBEB"/>
<defs>
<filter id="filter0_d_6_144" x="0" y="0" width="88" height="88" filterUnits="userSpaceOnUse" color-interpolation-filters="sRGB">
<feFlood flood-opacity="0" result="BackgroundImageFix"/>
<feColorMatrix in="SourceAlpha" type="matrix" values="0 0 0 0 0 0 0 0 0 0 0 0 0 0 0 0 0 0 127 0" result="hardAlpha"/>
<feOffset dy="4"/>
<feGaussianBlur stdDeviation="2"/>
<feComposite in2="hardAlpha" operator="out"/>
<feColorMatrix type="matrix" values="0 0 0 0 0 0 0 0 0 0 0 0 0 0 0 0 0 0 0.25 0"/>
<feBlend mode="normal" in2="BackgroundImageFix" result="effect1_dropShadow_6_144"/>
<feBlend mode="normal" in="SourceGraphic" in2="effect1_dropShadow_6_144" result="shape"/>
</filter>
</defs>
</svg>
