<svg width="80" height="80" viewBox="0 0 80 80" fill="none" xmlns="http://www.w3.org/2000/svg">
<rect width="80" height="80" rx="10" fill="#383E45"/>
<path d="M24.853 56.8015L21.4825 19H58.5175L55.1425 56.7955L39.9775 61L24.853 56.8015Z" fill="#E44F26"/>
<path d="M40 57.787L52.255 54.3895L55.138 22.0915H40V57.787Z" fill="#F1662A"/>
<path d="M40 36.1105H33.865L33.442 31.363H40V26.7265H28.375L28.486 27.9715L29.6245 40.747H40V36.1105ZM40 48.151L39.979 48.157L34.816 46.7635L34.486 43.066H29.8315L30.481 50.344L39.979 52.981L40 52.975V48.151Z" fill="#EBEBEB"/>
<path d="M39.9835 36.1105V40.747H45.6925L45.1555 46.7605L39.9835 48.1555V52.9795L49.489 50.344L49.558 49.561L50.647 37.3555L50.761 36.1105H39.9835ZM39.9835 26.7265V31.363H51.1825L51.2755 30.322L51.487 27.9715L51.598 26.7265H39.9835Z" fill="white"/>
</svg>
