<svg width="80" height="80" viewBox="0 0 80 80" fill="none" xmlns="http://www.w3.org/2000/svg">
<rect width="80" height="80" rx="10" fill="#383E45"/>
<g clip-path="url(#clip0_6_167)">
<path d="M16 16H64V64H16V16Z" fill="#F7DF1E"/>
<path d="M28.621 56.1123L32.2942 53.8892C33.0029 55.1457 33.6475 56.2088 35.1938 56.2088C36.676 56.2088 37.6107 55.6291 37.6107 53.3738V38.0367H42.1214V53.4376C42.1214 58.1095 39.3828 60.2361 35.3872 60.2361C31.7787 60.2361 29.6842 58.3673 28.6208 56.1119L28.621 56.1123ZM44.5715 55.6289L48.2442 53.5024C49.2112 55.0814 50.4678 56.2412 52.6908 56.2412C54.56 56.2412 55.7517 55.3067 55.7517 54.0179C55.7517 52.4714 54.5273 51.9235 52.4652 51.0216L51.3378 50.5379C48.0833 49.1528 45.9247 47.4128 45.9247 43.7397C45.9247 40.3564 48.5022 37.7787 52.5299 37.7787C55.3975 37.7787 57.4597 38.7777 58.9417 41.3875L55.4294 43.6431C54.656 42.2577 53.8186 41.71 52.5297 41.71C51.2086 41.71 50.3708 42.5477 50.3708 43.6431C50.3708 44.9963 51.2086 45.5444 53.1417 46.3821L54.2693 46.8653C58.1037 48.5087 60.2624 50.1841 60.2624 53.9536C60.2624 58.0137 57.0727 60.2367 52.7873 60.2367C48.5988 60.2367 45.8922 58.2391 44.5713 55.6291" fill="black"/>
</g>
<defs>
<clipPath id="clip0_6_167">
<rect width="48" height="48" fill="white" transform="translate(16 16)"/>
</clipPath>
</defs>
</svg>
