<svg width="92" height="67" viewBox="0 0 92 67" fill="none" xmlns="http://www.w3.org/2000/svg">
<path d="M40.2736 56.6403C36.8257 59.1031 33.5009 57.6664 32.2695 56.6403L26.3177 52.7409L21.0303 48.8414C20.2094 48.431 17.8004 46.3786 17.1309 43.7106C16.5054 41.218 17.6782 37.6905 18.7728 36.5275L26.3177 33.449L26.7282 33.6542C39.5347 41.0426 42.9416 44.1211 42.5311 47.8153V51.3042C42.5995 52.604 42.2438 55.491 40.2736 56.6403Z" fill="url(#paint0_linear_6_6)"/>
<path fill-rule="evenodd" clip-rule="evenodd" d="M26.3387 32.9004L26.9651 33.2136L26.9781 33.2211C33.3778 36.9132 37.4747 39.5534 39.92 41.7479C42.3696 43.9462 43.2506 45.7796 43.0311 47.8423V51.2913C43.0664 51.9933 42.9885 53.094 42.6434 54.1801C42.2992 55.263 41.6673 56.3969 40.5458 57.0602C36.8827 59.6632 33.3326 58.1607 31.9722 57.0432L26.0321 53.1515L20.766 49.2677C20.2721 49.0081 19.4397 48.3538 18.6482 47.4525C17.8279 46.5185 17.0065 45.269 16.6459 43.8323C16.3051 42.474 16.4596 40.8769 16.8232 39.4933C17.1842 38.1195 17.7788 36.854 18.4087 36.1848L18.4832 36.1056L26.3387 32.9004ZM19.0679 36.947C18.6197 37.4704 18.1162 38.5077 17.7904 39.7475C17.4503 41.0416 17.3312 42.4546 17.6159 43.5889C17.9249 44.8202 18.6427 45.9309 19.3995 46.7926C20.1629 47.6618 20.9209 48.2277 21.2539 48.3942L21.2924 48.4134L26.6034 52.3302L32.5675 56.2377L32.5896 56.2561C33.707 57.1873 36.7774 58.523 39.9829 56.2334L40.0017 56.22L40.0216 56.2084C40.8577 55.7207 41.3832 54.8435 41.6903 53.8772C41.9963 52.9145 42.0633 51.9289 42.0318 51.3305L42.0311 51.3173V47.7875L42.0342 47.76C42.2142 46.14 41.5938 44.5937 39.2521 42.4922C36.8965 40.3782 32.8905 37.787 26.4913 34.0947L26.2968 33.9975L19.0679 36.947Z" fill="#FFB742"/>
<path d="M12 27.7676V38.4397C12.6157 44.6497 20.825 49.2518 21.0302 48.8413C20.4145 47.8836 18.5674 45.4177 18.157 42.9607C17.7548 40.5533 19.0463 38.4456 20.0041 37.6247C22.8773 35.7776 30.309 31.2481 36.8332 26.5363C44.2215 21.2002 42.3744 20.4322 42.3744 12.2229C41.5535 6.68165 35.1913 7.91304 33.9599 8.681C30.1289 11.2806 21.5535 17.5271 17.3361 19.9688C13.4366 22.2264 12.0684 25.8521 12 27.7676Z" fill="#FFB742"/>
<path d="M50.8534 9.8607C54.3013 7.39791 57.6261 8.83454 58.8575 9.8607L64.8093 13.7601L70.0967 17.6595C70.9176 18.07 73.3265 20.1223 73.9961 22.7904C74.6216 25.283 73.4488 28.8105 72.3542 29.9735L64.8093 33.052L64.3988 32.8468C51.5923 25.4584 48.1854 22.3799 48.5959 18.6857V15.1968C48.5275 13.8969 48.8832 11.01 50.8534 9.8607Z" fill="url(#paint1_linear_6_6)"/>
<path fill-rule="evenodd" clip-rule="evenodd" d="M64.7883 33.6006L64.1618 33.2873L64.1489 33.2799C57.7492 29.5877 53.6523 26.9476 51.207 24.7531C48.7574 22.5547 47.8764 20.7214 48.0959 18.6586V15.2096C48.0606 14.5076 48.1385 13.4069 48.4836 12.3209C48.8278 11.2379 49.4597 10.1041 50.5812 9.44076C54.2443 6.83773 57.7944 8.34027 59.1548 9.45774L65.0949 13.3495L70.361 17.2333C70.8549 17.4928 71.6873 18.1471 72.4788 19.0485C73.2991 19.9825 74.1205 21.232 74.4811 22.6687C74.8219 24.027 74.6674 25.6241 74.3038 27.0077C73.9427 28.3815 73.3482 29.647 72.7183 30.3162L72.6438 30.3954L64.7883 33.6006ZM72.0591 29.554C72.5073 29.0306 73.0108 27.9933 73.3366 26.7535C73.6767 25.4594 73.7958 24.0464 73.5111 22.9121C73.2021 21.6808 72.4843 20.5701 71.7275 19.7083C70.9641 18.8391 70.206 18.2733 69.8731 18.1068L69.8345 18.0875L64.5236 14.1708L58.5595 10.2632L58.5374 10.2448C57.42 9.31364 54.3496 7.97795 51.144 10.2676L51.1253 10.281L51.1054 10.2926C50.2693 10.7803 49.7438 11.6575 49.4367 12.6238C49.1307 13.5865 49.0637 14.572 49.0952 15.1705L49.0959 15.1836V18.7134L49.0928 18.741C48.9128 20.3609 49.5332 21.9073 51.8749 24.0088C54.2305 26.1228 58.2365 28.714 64.6357 32.4063L64.8302 32.5035L72.0591 29.554Z" fill="#FFB742"/>
<path d="M79.1269 38.7333V28.0612C78.5112 21.8513 70.3019 17.2492 70.0967 17.6597C70.7124 18.6174 72.5595 21.0833 72.97 23.5402C73.3722 25.9477 72.0806 28.0554 71.1229 28.8763C68.2496 30.7234 60.8179 35.2529 54.2938 39.9647C46.9054 45.3008 48.7525 46.0687 48.7525 54.278C49.5734 59.8193 55.9356 58.5879 57.167 57.82C60.998 55.2204 69.5734 48.9739 73.7909 46.5322C77.6903 44.2746 79.0585 40.6488 79.1269 38.7333Z" fill="#FFB742"/>
<defs>
<linearGradient id="paint0_linear_6_6" x1="25.9559" y1="33.449" x2="36.4228" y2="58.0769" gradientUnits="userSpaceOnUse">
<stop stop-color="#BB842C"/>
<stop offset="1" stop-color="#FFB742"/>
</linearGradient>
<linearGradient id="paint1_linear_6_6" x1="65.1711" y1="33.052" x2="54.7042" y2="8.42407" gradientUnits="userSpaceOnUse">
<stop stop-color="#BB842C"/>
<stop offset="1" stop-color="#FFB742"/>
</linearGradient>
</defs>
</svg>
